<svg width="32" height="32" viewBox="0 0 32 32" fill="none" xmlns="http://www.w3.org/2000/svg">
<path d="M28.6084 19.6757L31.7837 24.984C31.9143 25.2026 31.9881 25.4484 31.9987 25.7006C32.0092 25.9527 31.9563 26.2035 31.8443 26.4315C31.7324 26.6596 31.5648 26.858 31.3559 27.0098C31.147 27.1616 30.9031 27.2622 30.6451 27.3031L30.4626 27.3202L30.2817 27.3186L25.5447 27.0225L23.4402 31.1308C23.326 31.3532 23.1583 31.5462 22.9513 31.6935C22.7442 31.8409 22.5037 31.9385 22.2497 31.9781C21.9957 32.0177 21.7356 31.9983 21.491 31.9214C21.2463 31.8445 21.0243 31.7124 20.8432 31.536L20.7107 31.3895L20.5945 31.2181L17.416 25.9082C19.6535 25.7732 21.8282 25.1403 23.77 24.0591C25.7117 22.9778 27.3678 21.4775 28.6084 19.6757ZM15.5813 25.9082L12.406 31.2196C12.2774 31.4348 12.0973 31.6172 11.8808 31.7517C11.6644 31.8862 11.4178 31.9688 11.1615 31.9927C10.9052 32.0167 10.6468 31.9812 10.4076 31.8893C10.1684 31.7974 9.95544 31.6517 9.7864 31.4643L9.66365 31.3084L9.56029 31.1308L7.45423 27.0241L2.72046 27.3202C2.4597 27.3364 2.19877 27.2913 1.96 27.1889C1.72123 27.0865 1.51175 26.9298 1.34949 26.7321C1.18723 26.5345 1.07703 26.3018 1.02833 26.0541C0.979628 25.8064 0.993877 25.551 1.06985 25.3097L1.13446 25.143L1.21521 24.9871L4.39367 19.6741C5.63352 21.476 7.28865 22.9765 9.22952 24.0583C11.1704 25.14 13.3444 25.7722 15.5813 25.9082ZM16.5019 1L16.8895 1.00623C19.8191 1.10322 22.5951 2.29444 24.632 4.32863C26.6689 6.36282 27.8074 9.08093 27.8074 11.9096L27.8025 12.2104L27.7912 12.5096L27.7622 12.8915L27.7202 13.2686L27.6814 13.546C27.5751 14.2188 27.4037 14.8804 27.1694 15.5222L26.9821 16.0023L26.735 16.5446C25.8206 18.4242 24.3695 20.013 22.5521 21.1244C20.7346 22.2358 18.6262 22.8238 16.4745 22.8192C14.3229 22.8146 12.2172 22.2177 10.4048 21.0985C8.59248 19.9794 7.14866 18.3844 6.24293 16.501L6.03297 16.0381L5.94899 15.8308L5.81978 15.4926L5.66635 15.0344C5.61155 14.857 5.56146 14.6782 5.51615 14.4983L5.41924 14.0759L5.34011 13.6536L5.3078 13.437L5.24482 12.9336L5.20605 12.3647L5.19636 11.9096C5.19631 9.08093 6.33482 6.36282 8.37172 4.32863C10.4086 2.29444 13.1847 1.10322 16.1143 1.00623L16.5019 1Z" fill="white"/>
</svg>
