<svg width="32" height="32" viewBox="0 0 32 32" fill="none" xmlns="http://www.w3.org/2000/svg">
<path d="M28.2148 24.4452L26.1617 22.3921L23.6362 24.9176V24.9165C23.2981 25.2556 22.7489 25.2556 22.4108 24.9165C22.0717 24.5785 22.0717 24.0292 22.4108 23.6911L24.9363 21.1657L22.3307 18.5611L19.8052 21.0866H19.8063C19.4671 21.4246 18.9189 21.4246 18.5798 21.0866C18.2418 20.7475 18.2418 20.1993 18.5798 19.8601L21.1053 17.3346L18.5007 14.7301L15.9752 17.2556C15.6372 17.5947 15.0879 17.5947 14.7499 17.2556C14.4107 16.9175 14.4107 16.3682 14.7499 16.0302L17.2754 13.5047L14.6708 10.9001L12.1453 13.4256H12.1442C11.8062 13.7626 11.258 13.7615 10.9199 13.4235C10.5819 13.0865 10.5819 12.5383 10.9189 12.1992L13.4443 9.67369L10.8398 7.07021L8.3143 9.59462C7.97625 9.93375 7.42697 9.93375 7.08893 9.59462C6.7498 9.25657 6.7498 8.70729 7.08893 8.36925L9.61333 5.84376L7.56024 3.79067C6.80183 3.01709 5.64691 2.78633 4.64909 3.20886C3.64474 3.61513 2.99034 4.59457 3.00011 5.67798V26.3326C3.00444 27.8071 4.19838 29.0011 5.67293 29.0043H26.3275H26.3265C27.4077 29.0065 28.3828 28.3554 28.7967 27.3564C29.2105 26.3575 28.9808 25.2079 28.2148 24.4452ZM16.8214 23.9728C16.6882 24.2968 16.374 24.5091 16.024 24.5124H8.36311C7.88423 24.508 7.49745 24.1212 7.49312 23.6424V15.9815C7.49637 15.6315 7.70872 15.3173 8.03267 15.1841C8.35554 15.0475 8.72823 15.1201 8.97632 15.3682L16.6372 23.0292C16.8853 23.2773 16.9579 23.65 16.8214 23.9728ZM9.22764 18.0715L13.9352 22.778H9.22764V18.0715Z" fill="white"/>
</svg>
