<svg width="32" height="32" viewBox="0 0 32 32" fill="none" xmlns="http://www.w3.org/2000/svg">
<path d="M17.916 24.368C19.2333 21.8853 23.624 21.8853 23.624 21.8853C28.2 21.8373 28.8187 19.0587 29.232 17.6547C28.8675 20.5628 27.5554 23.2701 25.4985 25.358C23.4416 27.446 20.7544 28.7985 17.852 29.2067C17.4213 28.3 16.912 26.26 17.916 24.368Z" fill="white"/>
<path d="M6.67467 7.77867L6.12534 7.30934C6.07998 7.27041 6.03638 7.22948 5.99467 7.18667C3.84579 9.61917 2.66194 12.7543 2.66667 16C2.66667 23.28 8.50267 29.2 15.752 29.3307C15.2813 27.924 14.9733 25.6453 16.1493 23.4307C17.2293 21.396 19.4027 20.5947 20.7867 20.2533C21.6882 20.0352 22.6101 19.9123 23.5373 19.8867H23.608C25.4493 19.8653 26.164 19.3227 26.4933 18.9507C26.9013 18.492 27.0613 17.948 27.284 17.1893L27.3133 17.0907C27.4399 16.6603 27.7075 16.2849 28.0732 16.025C28.4388 15.765 28.8812 15.6355 29.3293 15.6573C29.2515 12.4584 28.0214 9.3951 25.8653 7.03067C25.8227 7.26667 25.772 7.488 25.7227 7.68267C25.496 8.564 25.1173 9.516 24.6507 10.2227C24.196 10.916 23.3853 11.5333 22.848 11.92C22.4413 12.212 22.0253 12.4533 21.684 12.652L21.5613 12.7227C21.252 12.9 21.0067 13.0427 20.772 13.196C20.2973 13.5093 20.012 13.788 19.82 14.1653C19.9373 14.5947 20.02 15.0893 20.0227 15.6053C20.0253 16.8347 19.396 17.8053 18.6453 18.4107C17.8889 19.0156 16.9472 19.3414 15.9787 19.3333C12.0453 19.2907 9.73867 16.0813 9.44134 12.776C9.35467 11.8147 8.92267 10.7787 8.31867 9.81334C7.85687 9.06978 7.30466 8.38634 6.67467 7.77867Z" fill="white"/>
<path d="M11.4333 12.596C11.184 9.81734 9.04133 7.228 8 6.28134L7.42667 5.788C9.82613 3.7677 12.8633 2.66196 16 2.66667C18.952 2.66667 21.68 3.62667 23.888 5.248C24.2 6.19601 23.6053 8.17601 22.9813 9.12267C22.7547 9.46534 22.2427 9.89201 21.68 10.296C20.4133 11.2067 18.8133 11.656 18 13.3333C17.7967 13.7556 17.7573 14.2383 17.8893 14.688C17.9693 14.9813 18.0227 15.3 18.0227 15.6107C18.0253 16.6173 17.0067 17.344 16 17.3333C13.3813 17.3053 11.6667 15.1947 11.4333 12.596Z" fill="white"/>
</svg>
