<svg width="32" height="33" viewBox="0 0 32 33" fill="none" xmlns="http://www.w3.org/2000/svg">
<path d="M25.5389 18.7531L24.8316 14.7152C24.8021 14.4794 24.5663 14.3025 24.3305 14.3025H18.5537C18.3179 14.3025 18.0821 14.4794 18.0526 14.7152L17.3747 18.7236C17.1979 19.7846 17.4042 20.8752 17.9937 21.7594C18.7011 22.8204 19.8211 23.4983 21.0884 23.6162V29.6878C21.0884 29.9236 20.9116 30.1299 20.6758 30.1594L18.8484 30.4836C18.7895 30.4836 18.7305 30.5425 18.7305 30.631C18.7305 30.7194 18.7895 30.7783 18.8779 30.7783H24.0358C24.1242 30.7783 24.1832 30.7194 24.1832 30.631C24.1832 30.572 24.1242 30.5131 24.0653 30.4836L22.2674 30.1594C22.0316 30.1299 21.8547 29.9236 21.8547 29.6878V23.6457C23.0926 23.5278 24.2421 22.8499 24.9495 21.7889C25.5095 20.8752 25.7158 19.7846 25.5389 18.7531Z" fill="white"/>
<path d="M13.2779 10.5004C12.8358 10.0583 12.6 9.49832 12.6 8.87937V5.51937C12.7768 5.4899 12.8947 5.372 12.8947 5.19516V3.72148C12.8947 3.54464 12.7768 3.42674 12.6 3.39727C12.6 3.07306 12.3347 2.77832 11.9811 2.77832H10.1537C9.82947 2.77832 9.53474 3.04358 9.53474 3.39727C9.35789 3.42674 9.24 3.54464 9.24 3.72148V5.19516C9.24 5.372 9.35789 5.4899 9.53474 5.51937V8.8499C9.53474 9.46885 9.29895 10.0288 8.85684 10.471L8.12 11.2078C7.41263 11.9152 7 12.8878 7 13.9194V29.7467C7 30.3067 7.47158 30.7783 8.03158 30.7783H14.0737C14.6337 30.7783 15.1053 30.3067 15.1053 29.7467V13.9194C15.1053 12.9173 14.6926 11.9446 13.9853 11.2078L13.2779 10.5004Z" fill="white"/>
</svg>
