<svg width="32" height="32" viewBox="0 0 32 32" fill="none" xmlns="http://www.w3.org/2000/svg">
<path d="M14.1269 26.6933C13.9626 26.325 13.8828 25.9246 13.8935 25.5215C13.9041 25.1183 14.0049 24.7227 14.1884 24.3636C14.3719 24.0045 14.6335 23.691 14.954 23.4462C15.2745 23.2015 15.6457 23.0315 16.0405 22.949C16.0497 22.7468 16.0548 22.5467 16.0548 22.3509C16.0548 22.2822 16.0533 22.2124 16.0509 22.1422L15.0441 21.6388C14.5183 21.3776 13.9392 21.2416 13.352 21.2416C12.7649 21.2416 12.1858 21.3776 11.66 21.6388L9.95812 22.4897C9.33325 22.8024 8.64831 22.9767 7.94998 23.0008C7.25165 23.0248 6.55634 22.898 5.91143 22.6291L3.1398 21.4746C3.10187 21.7652 3.08228 22.0579 3.08115 22.3509C3.08115 23.8555 3.37366 27.6678 6.04076 31H12.2726C11.9866 30.6195 11.8062 30.1703 11.7497 29.6977C11.6932 29.225 11.7626 28.7459 11.9508 28.3087C12.1391 27.8716 12.4395 27.4919 12.8217 27.2082C13.2039 26.9245 13.6543 26.7469 14.1273 26.6933H14.1269Z" fill="white"/>
<path d="M18.7576 23.432C19.6533 23.432 20.3793 22.706 20.3793 21.8103C20.3793 20.9147 19.6533 20.1886 18.7576 20.1886C17.862 20.1886 17.1359 20.9147 17.1359 21.8103C17.1359 22.706 17.862 23.432 18.7576 23.432Z" fill="white"/>
<path d="M23.0822 23.432C23.9778 23.432 24.7039 22.706 24.7039 21.8103C24.7039 20.9147 23.9778 20.1886 23.0822 20.1886C22.1865 20.1886 21.4605 20.9147 21.4605 21.8103C21.4605 22.706 22.1865 23.432 23.0822 23.432Z" fill="white"/>
<path d="M20.9199 27.216C21.8155 27.216 22.5416 26.49 22.5416 25.5943C22.5416 24.6987 21.8155 23.9726 20.9199 23.9726C20.0242 23.9726 19.2982 24.6987 19.2982 25.5943C19.2982 26.49 20.0242 27.216 20.9199 27.216Z" fill="white"/>
<path d="M25.2444 27.216C26.1401 27.216 26.8662 26.49 26.8662 25.5943C26.8662 24.6987 26.1401 23.9726 25.2444 23.9726C24.3488 23.9726 23.6227 24.6987 23.6227 25.5943C23.6227 26.49 24.3488 27.216 25.2444 27.216Z" fill="white"/>
<path d="M7.94625 9.91783C7.94625 10.6003 7.35798 12.3094 5.70695 15.0611C4.52716 17.028 3.72887 18.8334 3.345 20.3888L6.32718 21.6313C6.82879 21.8405 7.36959 21.9391 7.91274 21.9204C8.45589 21.9016 8.98862 21.7661 9.47464 21.5229L11.1765 20.672C11.8525 20.3361 12.5971 20.1613 13.352 20.1613C14.1069 20.1613 14.8515 20.3361 15.5275 20.672L15.8948 20.8556C15.565 19.1989 14.7292 17.2283 13.429 15.0613C11.7779 12.3094 11.1897 10.6003 11.1897 9.91783C11.1897 8.82899 11.459 5.18157 14.6798 1C13.0423 1.39272 10.2881 2.29209 7.94625 4.22314V9.91783Z" fill="white"/>
<path d="M16.5954 27.216C17.491 27.216 18.2171 26.49 18.2171 25.5943C18.2171 24.6987 17.491 23.9726 16.5954 23.9726C15.6997 23.9726 14.9736 24.6987 14.9736 25.5943C14.9736 26.49 15.6997 27.216 16.5954 27.216Z" fill="white"/>
<path d="M23.0822 31C23.9778 31 24.7039 30.2739 24.7039 29.3783C24.7039 28.4827 23.9778 27.7566 23.0822 27.7566C22.1865 27.7566 21.4605 28.4827 21.4605 29.3783C21.4605 30.2739 22.1865 31 23.0822 31Z" fill="white"/>
<path d="M18.7576 31C19.6533 31 20.3793 30.2739 20.3793 29.3783C20.3793 28.4827 19.6533 27.7566 18.7576 27.7566C17.862 27.7566 17.1359 28.4827 17.1359 29.3783C17.1359 30.2739 17.862 31 18.7576 31Z" fill="white"/>
<path d="M14.4331 31C15.3287 31 16.0548 30.2739 16.0548 29.3783C16.0548 28.4827 15.3287 27.7566 14.4331 27.7566C13.5374 27.7566 12.8114 28.4827 12.8114 29.3783C12.8114 30.2739 13.5374 31 14.4331 31Z" fill="white"/>
<path d="M2 13.3345C1.99969 13.8804 2.11765 14.4199 2.34577 14.9158C2.57388 15.4118 2.90673 15.8524 3.32142 16.2075L3.67786 16.513C3.86321 16.1392 4.05396 15.7781 4.24478 15.4331L4.09551 15.3136C3.77826 15.0611 3.52222 14.7401 3.34656 14.3746C3.1709 14.0091 3.08016 13.6086 3.08114 13.2031V10.4584C3.08194 9.7418 3.36696 9.05479 3.87367 8.54809C4.38038 8.04138 5.06739 7.75636 5.78398 7.75555H6.86512V6.67442H5.78398C4.78075 6.67554 3.81894 7.07457 3.10955 7.78396C2.40016 8.49335 2.00113 9.45517 2 10.4584V13.3345Z" fill="white"/>
<path d="M29.071 20.2724C29.06 20.3425 29.0353 20.4098 28.9983 20.4704C28.9614 20.5309 28.9128 20.5836 28.8554 20.6254C28.7981 20.6672 28.7331 20.6973 28.6641 20.7139C28.5951 20.7306 28.5235 20.7335 28.4534 20.7224C27.279 20.5393 26.3526 20.6819 25.6445 20.9474C25.5258 20.5982 25.3373 20.2768 25.0904 20.0028C25.4112 19.8704 25.7435 19.7675 26.083 19.6954C26.0037 19.3666 25.8918 19.0465 25.7492 18.7399C25.5193 18.2474 25.2198 17.7904 24.86 17.3831C24.2775 18.0649 23.5194 18.6223 22.9572 18.9838V17.7635C22.9571 17.6657 22.9305 17.5697 22.8802 17.4858C22.8299 17.4019 22.7578 17.3332 22.6715 17.287C22.5853 17.2408 22.4881 17.2189 22.3904 17.2235C22.2927 17.2282 22.198 17.2593 22.1166 17.3135C21.1733 17.9426 20.3064 18.1764 19.5408 18.0088C19.1157 17.9099 18.7247 17.6992 18.4083 17.3986L19.9557 16.6249C20.0403 16.5826 20.1124 16.5187 20.1646 16.4398C20.2169 16.3608 20.2474 16.2696 20.2533 16.1751C20.2592 16.0806 20.2402 15.9862 20.1981 15.9014C20.1561 15.8166 20.0925 15.7443 20.0138 15.6918C19.0009 15.0167 18.4495 13.5538 18.2171 12.7714C20.0293 12.4673 21.7267 12.8774 21.7449 12.8822C21.8246 12.902 21.9078 12.9034 21.9881 12.8863C22.0684 12.8692 22.1437 12.8341 22.2084 12.7835C22.2732 12.733 22.3255 12.6684 22.3616 12.5947C22.3977 12.5209 22.4165 12.4399 22.4166 12.3578V10.999C24.5275 12.0416 24.5775 13.8964 24.5789 13.9795C24.5789 14.0652 24.5992 14.1496 24.6382 14.2259C24.6773 14.3021 24.7339 14.368 24.8034 14.4181C24.8728 14.4682 24.9532 14.501 25.0379 14.5139C25.1226 14.5269 25.2091 14.5195 25.2904 14.4924L26.1681 14.1998C26.0931 15.0553 25.9012 15.6688 25.7343 16.0614C25.6702 16.213 25.5964 16.3604 25.5134 16.5026C26.0295 17.0454 26.4511 17.6707 26.7607 18.3527C26.9362 18.7413 27.0707 19.1471 27.1621 19.5636C27.65 19.5468 28.1383 19.5774 28.6203 19.6548C28.6904 19.6658 28.7577 19.6904 28.8184 19.7274C28.879 19.7644 28.9317 19.8129 28.9736 19.8703C29.0154 19.9276 29.0456 19.9926 29.0623 20.0616C29.079 20.1306 29.082 20.2023 29.071 20.2724Z" fill="white"/>
</svg>
