<svg width="32" height="32" viewBox="0 0 32 32" fill="none" xmlns="http://www.w3.org/2000/svg">
<path d="M24.3703 4.59863L4.6276 24.3428C4.22576 24.7447 4 25.2897 4 25.858C4 26.4263 4.22576 26.9713 4.6276 27.3732C5.02945 27.775 5.57447 28.0008 6.14277 28.0008C6.71107 28.0008 7.25609 27.775 7.65793 27.3732L27.4006 7.63047C27.79 7.22604 28.0052 6.685 27.9999 6.12362C27.9946 5.56224 27.7694 5.02533 27.3725 4.62825C26.9756 4.23118 26.4388 4.00565 25.8775 4.0001C25.3161 3.99456 24.7749 4.20946 24.3703 4.59863ZM8.42766 5.36076C8.02892 5.36036 7.634 5.43851 7.26545 5.59073C6.8969 5.74296 6.56195 5.96628 6.27971 6.24796C5.99747 6.52963 5.77348 6.86414 5.62052 7.23238C5.46755 7.60062 5.38862 7.99538 5.38822 8.39413C5.38782 8.79288 5.46597 9.1878 5.61819 9.55634C5.77042 9.92489 5.99374 10.2598 6.27542 10.5421C6.55709 10.8243 6.8916 11.0483 7.25984 11.2013C7.62808 11.3542 8.02284 11.4332 8.42159 11.4336C9.22689 11.4344 9.99953 11.1152 10.5695 10.5464C11.1395 9.97751 11.4602 9.20551 11.461 8.4002C11.4618 7.5949 11.1427 6.82226 10.5738 6.25225C10.005 5.68225 9.23297 5.36157 8.42766 5.36076ZM23.6097 20.5428C22.8044 20.542 22.0317 20.8611 21.4617 21.43C20.8917 21.9988 20.571 22.7708 20.5702 23.5761C20.5694 24.3815 20.8886 25.1541 21.4574 25.7241C22.0263 26.2941 22.7983 26.6148 23.6036 26.6156C24.0024 26.616 24.3973 26.5378 24.7658 26.3856C25.1344 26.2334 25.4693 26.0101 25.7516 25.7284C26.0338 25.4467 26.2578 25.1122 26.4108 24.744C26.5637 24.3757 26.6426 23.981 26.643 23.5822C26.6434 23.1835 26.5653 22.7886 26.4131 22.42C26.2609 22.0515 26.0375 21.7165 25.7559 21.4343C25.4742 21.152 25.1397 20.928 24.7714 20.7751C24.4032 20.6221 24.0084 20.5432 23.6097 20.5428Z" fill="white"/>
</svg>
