<svg width="32" height="33" viewBox="0 0 32 33" fill="none" xmlns="http://www.w3.org/2000/svg">
<path d="M20.693 3.77966H26.0269C26.2671 3.77966 26.4902 3.90172 26.6188 4.10515L29.9995 9.46252H22.6209L20.693 3.77966ZM12.7869 3.77966L10.8588 9.4626H21.1408L19.2128 3.77966H12.7869ZM18.3871 19.9176L21.1866 10.863H10.8274L13.6268 19.9176V19.9557L15.9998 29.6009L18.3792 19.9557L18.3871 19.9176ZM9.37858 9.4626L11.3066 3.77832L5.97275 3.77963C5.73257 3.77963 5.50945 3.90169 5.38083 4.10512L2.0001 9.46248L9.37858 9.4626ZM22.6357 10.863L19.7339 20.3127L17.7075 28.53L23.3877 20.5187L30 10.863H22.6357ZM12.2661 20.3127L9.34978 10.863H2L8.61867 20.5399L14.2925 28.53L12.2661 20.3127Z" fill="white"/>
</svg>
