<svg width="32" height="33" viewBox="0 0 32 33" fill="none" xmlns="http://www.w3.org/2000/svg">
<path d="M29.7693 6.06083C29.603 5.88121 29.3703 5.77832 29.1253 5.77832H2.87469C2.62969 5.77832 2.39693 5.88121 2.23068 6.06083C2.06618 6.24045 1.98217 6.48111 2.00318 6.72351L3.75321 27.6503C3.78996 28.1019 4.16972 28.449 4.62473 28.449H27.3752C27.8302 28.449 28.21 28.1019 28.2467 27.6503L29.9968 6.72351C30.0178 6.47937 29.9355 6.23871 29.7693 6.06083ZM27.0182 21.3496C25.8807 22.5285 24.3197 23.2173 22.6676 23.2173H19.5001H9.33233C7.6803 23.2173 6.11926 22.5285 4.98174 21.3513L3.82496 7.52222H28.175L27.0182 21.3496Z" fill="white"/>
<path d="M11.8804 16.859C12.0519 17.0282 12.2759 17.1137 12.4999 17.1137C12.7239 17.1137 12.9479 17.0282 13.1194 16.859L15.7445 14.2432C16.0857 13.9031 16.0857 13.3503 15.7445 13.0103L13.1194 10.3944C12.7782 10.0544 12.2234 10.0544 11.8821 10.3944L9.25708 13.0103C8.91582 13.3503 8.91582 13.9031 9.25708 14.2432L11.8804 16.859Z" fill="white"/>
<path d="M22.7446 20.3468C23.0859 20.0068 23.0859 19.454 22.7446 19.1139L20.1196 16.4981C19.7783 16.158 19.2235 16.158 18.8823 16.4981L16.2572 19.1139C15.916 19.454 15.916 20.0068 16.2572 20.3468L18.8823 22.9627C19.052 23.1318 19.276 23.2173 19.5001 23.2173C19.7241 23.2173 19.9481 23.1318 20.1196 22.9627L22.7446 20.3468Z" fill="white"/>
</svg>
