<svg width="32" height="32" viewBox="0 0 32 32" fill="none" xmlns="http://www.w3.org/2000/svg">
<path d="M7.1209 23.5796H11.0638C10.7706 21.3907 10.6123 18.9942 10.6123 16.5C10.6123 14.0058 10.7706 11.6102 11.0638 9.42041H7.12183H6.1461C5.39941 11.5879 5 13.9909 5 16.5C5 19.0091 5.40034 21.4121 6.14703 23.5796H7.1209Z" fill="white"/>
<path d="M19.6888 23.5796C19.9867 21.4 20.1496 19.0035 20.1496 16.5C20.1496 13.9964 19.9876 11.6 19.6888 9.42041H12.0031C11.7052 11.6 11.5422 13.9964 11.5422 16.5C11.5422 19.0035 11.7042 21.4 12.0031 23.5796H19.6888Z" fill="white"/>
<path d="M24.1949 24.5106H20.4968C20.346 25.4724 20.1672 26.3839 19.9615 27.2404H19.0072C19.2185 26.3894 19.4019 25.4761 19.5565 24.5106H12.1352C12.2898 25.4752 12.4732 26.3894 12.6845 27.2404H11.7311C11.5263 26.3848 11.3466 25.4733 11.1958 24.5106H7.49773H6.50339C6.91118 25.5171 7.3888 26.4714 7.94928 27.3428C7.44466 27.5486 7.08808 28.043 7.08808 28.6202C7.08808 29.3809 7.70721 30 8.46787 30H23.2248C23.9854 30 24.6046 29.3809 24.6046 28.6202C24.6046 28.043 24.247 27.5486 23.7433 27.3428C24.3048 26.4714 24.7815 25.5171 25.1892 24.5106H24.1949Z" fill="white"/>
<path d="M7.49773 8.48938H11.1958C11.3466 7.52762 11.5254 6.61614 11.7311 5.75959H12.6855C12.4741 6.61055 12.2907 7.5239 12.1361 8.48938H19.5574C19.4029 7.52483 19.2195 6.61055 19.0081 5.75959H19.9624C20.1672 6.61521 20.3469 7.52669 20.4978 8.48938H24.1958H25.1902C24.7824 7.48293 24.3057 6.52862 23.7443 5.65717C24.2489 5.45141 24.6055 4.95703 24.6055 4.37979C24.6055 3.61914 23.9863 3 23.2257 3H8.46787C7.70721 3 7.08808 3.61914 7.08808 4.37979C7.08808 4.95703 7.44466 5.45141 7.94928 5.65717C7.38787 6.52862 6.91118 7.48293 6.50339 8.48938H7.49773Z" fill="white"/>
<path d="M20.6294 9.42041C20.9227 11.6093 21.0809 14.0058 21.0809 16.5C21.0809 18.9942 20.9227 21.3898 20.6294 23.5796H24.5723H25.5471C26.2938 21.4131 26.6941 19.0091 26.6941 16.5C26.6941 13.9909 26.2938 11.5879 25.5471 9.42041H24.5723H20.6294Z" fill="white"/>
</svg>
