<svg width="32" height="32" viewBox="0 0 32 32" fill="none" xmlns="http://www.w3.org/2000/svg">
<path d="M20.2037 29.9259C18.1313 29.9259 16.4444 28.7214 16.4444 27.2407V15.9356C19.4508 15.6633 21.8148 13.1317 21.8148 10.0556C21.8148 10.0303 21.8132 10.0045 21.8094 9.9793L20.7354 2.46078C20.6978 2.19656 20.4711 2 20.2037 2H11.6111C11.3437 2 11.1176 2.19656 11.0794 2.46078L10.0054 9.9793C10.0016 10.0045 10 10.0303 10 10.0556C10 13.1317 12.364 15.6633 15.3704 15.9356V27.2407C15.3704 28.7214 13.6841 29.9259 11.6111 29.9259C11.3147 29.9259 11.0741 30.166 11.0741 30.463C11.0741 30.7599 11.3147 31 11.6111 31H20.2037C20.5007 31 20.7407 30.7599 20.7407 30.463C20.7407 30.166 20.5007 29.9259 20.2037 29.9259Z" fill="white"/>
</svg>
